# xmcd
#
# Track frame offsets: 
#        150
#        13970
#        26852
#        40597
#        49475
#        58890
#        71365
#        82715
#        97242
#        107582
#
# Disc length: 1580 seconds
#
# Revision: 4
# Processed by: cddbd v1.5.2PL0 Copyright (c) Steve Scherf et al.
# Submitted via: ExactAudioCopyFreeDBPlugin 1.0
#
DISCID=84062a0a
DTITLE=Marcel Martel - Chante Noël
DYEAR=1997
DGENRE=Noel
TTITLE0=Par La Cheminée
TTITLE1=Noël Sous Mon Toit
TTITLE2=L'hiver A Chassé L'hirondelle
TTITLE3=Le Nouvel An
TTITLE4=Rock'n Roll Du Père Noël
TTITLE5=Noël Familial
TTITLE6=Noël À Mon Église
TTITLE7=L'étoile Semble Dire
TTITLE8=Retour Au Foyer
TTITLE9=Noël Pour Tous
EXTD=
EXTT0=
EXTT1=
EXTT2=
EXTT3=
EXTT4=
EXTT5=
EXTT6=
EXTT7=
EXTT8=
EXTT9=
PLAYORDER=
